<svg width="20" height="20" viewBox="0 0 20 20" fill="none" xmlns="http://www.w3.org/2000/svg">
<path d="M17.7338 15.3533C17.444 16.023 17.1009 16.6393 16.7034 17.206C16.1615 17.9786 15.7178 18.5134 15.3759 18.8103C14.8459 19.2978 14.278 19.5474 13.6699 19.5616C13.2334 19.5616 12.7069 19.4374 12.094 19.1854C11.4792 18.9345 10.9141 18.8103 10.3975 18.8103C9.85563 18.8103 9.2745 18.9345 8.6529 19.1854C8.03036 19.4374 7.52884 19.5687 7.1454 19.5817C6.56226 19.6065 5.98101 19.3498 5.40082 18.8103C5.03051 18.4873 4.56733 17.9336 4.01246 17.1493C3.41713 16.3116 2.92768 15.3403 2.54424 14.2329C2.13359 13.0368 1.92773 11.8786 1.92773 10.7573C1.92773 9.47278 2.20529 8.36493 2.76122 7.43656C3.19814 6.69086 3.77939 6.10262 4.50687 5.6708C5.23436 5.23897 6.0204 5.01891 6.86691 5.00483C7.33009 5.00483 7.93749 5.14811 8.6923 5.42968C9.44498 5.7122 9.92827 5.85548 10.1402 5.85548C10.2986 5.85548 10.8355 5.68795 11.7456 5.35396C12.6063 5.04423 13.3327 4.91598 13.9278 4.9665C15.5404 5.09664 16.7519 5.73232 17.5576 6.87755C16.1154 7.75138 15.402 8.97529 15.4162 10.5454C15.4292 11.7683 15.8728 12.786 16.7448 13.5941C17.1399 13.9691 17.5812 14.259 18.0722 14.4648C17.9657 14.7736 17.8533 15.0694 17.7338 15.3533ZM14.0355 0.800129C14.0355 1.75868 13.6853 2.65368 12.9873 3.48208C12.1449 4.46688 11.126 5.03595 10.0211 4.94615C10.0071 4.83116 9.9989 4.71013 9.9989 4.58294C9.9989 3.66274 10.3995 2.67793 11.1109 1.87272C11.4661 1.46503 11.9178 1.12604 12.4655 0.855616C13.0121 0.589231 13.5291 0.441914 14.0154 0.416687C14.0296 0.54483 14.0355 0.672982 14.0355 0.800117V0.800129Z" fill="black"/>
</svg>
