<svg width="17" height="15" viewBox="0 0 17 15" fill="none" xmlns="http://www.w3.org/2000/svg">
<rect x="16" width="1" height="15" rx="0.500001" fill="#F2F2F2"/>
<path fill-rule="evenodd" clip-rule="evenodd" d="M11 7.5C11 7.8389 10.7265 8.11655 10.3797 8.1411L10.3296 8.14286L2.24516 8.14271L4.92316 10.9207C5.17448 11.1815 5.15784 11.5882 4.88598 11.8292C4.62844 12.0575 4.23424 12.0552 3.97977 11.8327L3.9387 11.7935L0.146834 7.86011C-0.0489459 7.65702 -0.0489458 7.34298 0.146834 7.13989L3.9387 3.20647C4.19002 2.94576 4.61413 2.9298 4.88599 3.17082C5.14353 3.39914 5.17203 3.7762 4.96062 4.03692L4.92316 4.07925L2.24544 6.85703L10.3296 6.85714C10.6999 6.85715 11 7.14496 11 7.5Z" fill="#F2F2F2"/>
</svg>
