<svg width="24" height="25" viewBox="0 0 24 25" fill="none" xmlns="http://www.w3.org/2000/svg">
<path fill-rule="evenodd" clip-rule="evenodd" d="M7.05033 3.80025C8.36309 2.4875 10.1436 1.75 12.0001 1.75C13.8566 1.75 15.6371 2.4875 16.9498 3.80025C18.2626 5.11301 19.0001 6.89349 19.0001 8.75C19.0001 12.1027 19.7171 14.1846 20.378 15.3961C20.7098 16.0044 21.0329 16.4035 21.2573 16.6404C21.3698 16.7591 21.4581 16.8378 21.5114 16.8822C21.538 16.9044 21.5558 16.918 21.5635 16.9237C21.5647 16.9246 21.5657 16.9253 21.5664 16.9258C21.9249 17.1721 22.0835 17.6225 21.9572 18.0398C21.8295 18.4615 21.4407 18.75 21.0001 18.75H3.00008C2.55941 18.75 2.17068 18.4615 2.04299 18.0398C1.91664 17.6225 2.07528 17.1721 2.43377 16.9258C2.43447 16.9253 2.43542 16.9246 2.43663 16.9237C2.44432 16.918 2.46218 16.9044 2.4888 16.8822C2.54202 16.8378 2.6304 16.7591 2.74288 16.6404C2.9673 16.4035 3.29039 16.0044 3.62218 15.3961C4.28301 14.1846 5.00008 12.1027 5.00008 8.75C5.00008 6.89348 5.73758 5.11301 7.05033 3.80025ZM5.1494 16.75H18.8508C18.7747 16.6253 18.6983 16.4934 18.6222 16.3539C17.783 14.8154 17.0001 12.3973 17.0001 8.75C17.0001 7.42392 16.4733 6.15215 15.5356 5.21447C14.5979 4.27678 13.3262 3.75 12.0001 3.75C10.674 3.75 9.40223 4.27678 8.46454 5.21447C7.52686 6.15215 7.00008 7.42392 7.00008 8.75C7.00008 12.3973 6.21715 14.8154 5.37797 16.3539C5.30188 16.4934 5.22549 16.6253 5.1494 16.75Z" fill="#F2F2F2"/>
<path fill-rule="evenodd" clip-rule="evenodd" d="M9.76831 20.885C10.246 20.6079 10.858 20.7705 11.1351 21.2482C11.223 21.3998 11.3492 21.5256 11.501 21.613C11.6528 21.7004 11.8249 21.7465 12.0001 21.7465C12.1753 21.7465 12.3474 21.7004 12.4992 21.613C12.651 21.5256 12.7772 21.3998 12.8651 21.2482C13.1422 20.7705 13.7541 20.6079 14.2318 20.885C14.7096 21.1621 14.8722 21.774 14.5951 22.2518C14.3314 22.7064 13.9528 23.0837 13.4974 23.3461C13.042 23.6084 12.5256 23.7465 12.0001 23.7465C11.4745 23.7465 10.9582 23.6084 10.5027 23.3461C10.0473 23.0837 9.66879 22.7064 9.40508 22.2518C9.12796 21.774 9.29058 21.1621 9.76831 20.885Z" fill="#F2F2F2"/>
</svg>
