<svg width="18" height="18" viewBox="0 0 18 18" fill="none" xmlns="http://www.w3.org/2000/svg">
<g id="log-out">
<g id="Icon">
<path fill-rule="evenodd" clip-rule="evenodd" d="M3.75 3C3.55109 3 3.36032 3.07902 3.21967 3.21967C3.07902 3.36032 3 3.55109 3 3.75V14.25C3 14.4489 3.07902 14.6397 3.21967 14.7803C3.36032 14.921 3.55109 15 3.75 15H6.75C7.16421 15 7.5 15.3358 7.5 15.75C7.5 16.1642 7.16421 16.5 6.75 16.5H3.75C3.15326 16.5 2.58097 16.2629 2.15901 15.841C1.73705 15.419 1.5 14.8467 1.5 14.25V3.75C1.5 3.15326 1.73705 2.58097 2.15901 2.15901C2.58097 1.73705 3.15326 1.5 3.75 1.5H6.75C7.16421 1.5 7.5 1.83579 7.5 2.25C7.5 2.66421 7.16421 3 6.75 3H3.75Z" fill="#F2F2F2"/>
<path d="M16.2803 8.46967C16.1446 8.33421 15.9569 8.25 15.75 8.25H13.9393L14.6893 9L13.9393 9.75H15.75C16.0629 9.75 16.331 9.55841 16.4435 9.28616C16.4802 9.19714 16.499 9.1025 16.5 9.00771C16.5 9.00249 16.5 8.99726 16.5 8.99204C16.4999 8.9827 16.4996 8.97336 16.4991 8.96402C16.4989 8.95867 16.4986 8.95331 16.4982 8.94796C16.4927 8.86772 16.4743 8.7882 16.443 8.71274C16.4058 8.62311 16.3518 8.54226 16.2848 8.47415C16.2833 8.47265 16.2818 8.47116 16.2803 8.46967Z" fill="#F2F2F2"/>
<path d="M6.75 8.25C6.33579 8.25 6 8.58579 6 9C6 9.41421 6.33579 9.75 6.75 9.75H13.9393L14.6893 9L13.9393 8.25H6.75Z" fill="#F2F2F2"/>
<path d="M12.5303 4.71967C12.2374 4.42678 11.7626 4.42678 11.4697 4.71967C11.1768 5.01256 11.1768 5.48744 11.4697 5.78033L13.9393 8.25H15.75C15.9569 8.25 16.1446 8.33421 16.2803 8.46967L12.5303 4.71967Z" fill="#F2F2F2"/>
<path d="M12.5303 13.2803L16.2803 9.53033C16.3525 9.45817 16.4069 9.37496 16.4435 9.28616C16.331 9.55841 16.0629 9.75 15.75 9.75H13.9393L11.4697 12.2197C11.1768 12.5126 11.1768 12.9874 11.4697 13.2803C11.7626 13.5732 12.2374 13.5732 12.5303 13.2803Z" fill="#F2F2F2"/>
</g>
</g>
</svg>
