<svg width="18" height="19" viewBox="0 0 18 19" fill="none" xmlns="http://www.w3.org/2000/svg">
<path fill-rule="evenodd" clip-rule="evenodd" d="M1.5 2.82846C1.5 2.41425 1.83579 2.07846 2.25 2.07846H7.5C7.91421 2.07846 8.25 2.41425 8.25 2.82846V8.07846C8.25 8.49267 7.91421 8.82846 7.5 8.82846H2.25C1.83579 8.82846 1.5 8.49267 1.5 8.07846V2.82846ZM3 3.57846V7.32846H6.75V3.57846H3Z" fill="#F2F2F2"/>
<path fill-rule="evenodd" clip-rule="evenodd" d="M9.75 2.82846C9.75 2.41425 10.0858 2.07846 10.5 2.07846H15.75C16.1642 2.07846 16.5 2.41425 16.5 2.82846V8.07846C16.5 8.49267 16.1642 8.82846 15.75 8.82846H10.5C10.0858 8.82846 9.75 8.49267 9.75 8.07846V2.82846ZM11.25 3.57846V7.32846H15V3.57846H11.25Z" fill="#F2F2F2"/>
<path fill-rule="evenodd" clip-rule="evenodd" d="M9.75 11.0785C9.75 10.6642 10.0858 10.3285 10.5 10.3285H15.75C16.1642 10.3285 16.5 10.6642 16.5 11.0785V16.3285C16.5 16.7427 16.1642 17.0785 15.75 17.0785H10.5C10.0858 17.0785 9.75 16.7427 9.75 16.3285V11.0785ZM11.25 11.8285V15.5785H15V11.8285H11.25Z" fill="#F2F2F2"/>
<path fill-rule="evenodd" clip-rule="evenodd" d="M1.5 11.0785C1.5 10.6642 1.83579 10.3285 2.25 10.3285H7.5C7.91421 10.3285 8.25 10.6642 8.25 11.0785V16.3285C8.25 16.7427 7.91421 17.0785 7.5 17.0785H2.25C1.83579 17.0785 1.5 16.7427 1.5 16.3285V11.0785ZM3 11.8285V15.5785H6.75V11.8285H3Z" fill="#F2F2F2"/>
</svg>
