<svg width="24" height="24" viewBox="0 0 24 24" fill="none" xmlns="http://www.w3.org/2000/svg">
<path fill-rule="evenodd" clip-rule="evenodd" d="M14 3C14 2.44772 14.4477 2 15 2H19C19.7957 2 20.5587 2.31607 21.1213 2.87868C21.6839 3.44129 22 4.20435 22 5V19C22 19.7957 21.6839 20.5587 21.1213 21.1213C20.5587 21.6839 19.7957 22 19 22H15C14.4477 22 14 21.5523 14 21C14 20.4477 14.4477 20 15 20H19C19.2652 20 19.5196 19.8946 19.7071 19.7071C19.8946 19.5196 20 19.2652 20 19V5C20 4.73478 19.8946 4.48043 19.7071 4.29289C19.5196 4.10536 19.2652 4 19 4H15C14.4477 4 14 3.55228 14 3Z" fill="black"/>
<path fill-rule="evenodd" clip-rule="evenodd" d="M15.7092 12.705C15.541 12.8743 15.3125 12.9836 15.0586 12.9983C15.0562 12.9984 15.0539 12.9986 15.0515 12.9987C15.0365 12.9995 15.0216 12.9999 15.0065 13C15.024 12.9999 15.0414 12.9993 15.0586 12.9983C15.3112 12.9836 15.5391 12.8749 15.7071 12.7071L15.7092 12.705ZM16 12.003L16 12L16 11.997V12.003ZM15.924 11.617C15.8763 11.5017 15.806 11.3935 15.7133 11.2991C15.8025 11.3899 15.8745 11.4976 15.924 11.617Z" fill="black"/>
<path d="M3 11C2.44772 11 2 11.4477 2 12C2 12.5523 2.44772 13 3 13H12.5858L13.5858 12L12.5858 11H3Z" fill="black"/>
<path d="M12.5858 11L13.5858 12L12.5858 13H15C15.0022 13 15.0043 13 15.0065 13C15.0216 12.9999 15.0365 12.9995 15.0515 12.9987C15.0539 12.9986 15.0562 12.9984 15.0586 12.9983C15.3112 12.9836 15.5391 12.8749 15.7071 12.7071L15.7092 12.705C15.8004 12.6133 15.8738 12.5041 15.9241 12.3828C15.9743 12.2615 15.9996 12.1323 16 12.003V11.997C15.9996 11.8677 15.9743 11.7384 15.924 11.617C15.8745 11.4976 15.8025 11.3899 15.7133 11.2991L15.7071 11.2929L15.7064 11.2922C15.5255 11.1116 15.2758 11 15 11H12.5858Z" fill="black"/>
<path d="M10.7071 6.29289C10.3166 5.90237 9.68342 5.90237 9.29289 6.29289C8.90237 6.68342 8.90237 7.31658 9.29289 7.70711L12.5858 11H15C15.2758 11 15.5255 11.1116 15.7064 11.2922L10.7071 6.29289Z" fill="black"/>
<path d="M10.7071 17.7071L15.7071 12.7071C15.5391 12.8749 15.3112 12.9836 15.0586 12.9983L15.0515 12.9987C15.0365 12.9995 15.0216 12.9999 15.0065 13L15 13H12.5858L9.29289 16.2929C8.90237 16.6834 8.90237 17.3166 9.29289 17.7071C9.68342 18.0976 10.3166 18.0976 10.7071 17.7071Z" fill="black"/>
</svg>
