<svg width="18" height="15" viewBox="0 0 18 15" fill="none" xmlns="http://www.w3.org/2000/svg">
<rect x="1.82642" y="15" width="1" height="15" rx="0.500001" transform="rotate(-180 1.82642 15)" fill="#F2F2F2"/>
<path fill-rule="evenodd" clip-rule="evenodd" d="M6.82642 7.5C6.82642 7.1611 7.09988 6.88345 7.44674 6.85891L7.49677 6.85714L15.5813 6.85729L12.9033 4.07925C12.6519 3.81855 12.6686 3.41183 12.9404 3.17082C13.198 2.94249 13.5922 2.9448 13.8466 3.16734L13.8877 3.20647L17.6796 7.13989C17.8754 7.34298 17.8754 7.65702 17.6796 7.86011L13.8877 11.7935C13.6364 12.0542 13.2123 12.0702 12.9404 11.8292C12.6829 11.6009 12.6544 11.2238 12.8658 10.9631L12.9033 10.9207L15.581 8.14297L7.49677 8.14286C7.12654 8.14286 6.82642 7.85504 6.82642 7.5Z" fill="#F2F2F2"/>
</svg>
