<svg width="18" height="18" viewBox="0 0 18 18" fill="none" xmlns="http://www.w3.org/2000/svg">
<g id="file-text">
<path id="Icon" fill-rule="evenodd" clip-rule="evenodd" d="M4.5 0.75C3.90326 0.75 3.33097 0.987053 2.90901 1.40901C2.48705 1.83097 2.25 2.40326 2.25 3V15C2.25 15.5967 2.48705 16.169 2.90901 16.591C3.33097 17.0129 3.90326 17.25 4.5 17.25H13.5C14.0967 17.25 14.669 17.0129 15.091 16.591C15.5129 16.169 15.75 15.5967 15.75 15V6.75C15.75 6.55109 15.671 6.36032 15.5303 6.21967L10.2803 0.96967C10.1397 0.829018 9.94891 0.75 9.75 0.75H4.5ZM3.96967 2.46967C4.11032 2.32902 4.30109 2.25 4.5 2.25H9V6.75C9 7.16421 9.33579 7.5 9.75 7.5H14.25V15C14.25 15.1989 14.171 15.3897 14.0303 15.5303C13.8897 15.671 13.6989 15.75 13.5 15.75H4.5C4.30109 15.75 4.11032 15.671 3.96967 15.5303C3.82902 15.3897 3.75 15.1989 3.75 15V3C3.75 2.80109 3.82902 2.61032 3.96967 2.46967ZM13.1893 6L10.5 3.31066V6H13.1893ZM6 6C5.58579 6 5.25 6.33579 5.25 6.75C5.25 7.16421 5.58579 7.5 6 7.5H7.5C7.91421 7.5 8.25 7.16421 8.25 6.75C8.25 6.33579 7.91421 6 7.5 6H6ZM5.25 9.75C5.25 9.33579 5.58579 9 6 9H12C12.4142 9 12.75 9.33579 12.75 9.75C12.75 10.1642 12.4142 10.5 12 10.5H6C5.58579 10.5 5.25 10.1642 5.25 9.75ZM5.25 12.75C5.25 12.3358 5.58579 12 6 12H12C12.4142 12 12.75 12.3358 12.75 12.75C12.75 13.1642 12.4142 13.5 12 13.5H6C5.58579 13.5 5.25 13.1642 5.25 12.75Z" fill="#F2F2F2"/>
</g>
</svg>
