<svg width="17" height="16" viewBox="0 0 17 16" fill="none" xmlns="http://www.w3.org/2000/svg">
<g id="divide-circle">
<g id="Icon">
<path fill-rule="evenodd" clip-rule="evenodd" d="M5.16699 8.00008C5.16699 7.63189 5.46547 7.33341 5.83366 7.33341H11.167C11.5352 7.33341 11.8337 7.63189 11.8337 8.00008C11.8337 8.36827 11.5352 8.66675 11.167 8.66675H5.83366C5.46547 8.66675 5.16699 8.36827 5.16699 8.00008Z" fill="#F2F2F2"/>
<path fill-rule="evenodd" clip-rule="evenodd" d="M8.50033 2.00008C5.18662 2.00008 2.50033 4.68637 2.50033 8.00008C2.50033 11.3138 5.18662 14.0001 8.50033 14.0001C11.814 14.0001 14.5003 11.3138 14.5003 8.00008C14.5003 4.68637 11.814 2.00008 8.50033 2.00008ZM1.16699 8.00008C1.16699 3.94999 4.45024 0.666748 8.50033 0.666748C12.5504 0.666748 15.8337 3.94999 15.8337 8.00008C15.8337 12.0502 12.5504 15.3334 8.50033 15.3334C4.45024 15.3334 1.16699 12.0502 1.16699 8.00008Z" fill="#F2F2F2"/>
</g>
</g>
</svg>
