<svg width="12" height="12" viewBox="0 0 12 12" fill="none" xmlns="http://www.w3.org/2000/svg">
<path d="M6 11.375C3.036 11.375 0.625 8.964 0.625 6C0.625 3.036 3.036 0.625 6 0.625C8.964 0.625 11.375 3.036 11.375 6C11.375 8.964 8.964 11.375 6 11.375ZM6 1.375C3.4495 1.375 1.375 3.4495 1.375 6C1.375 8.5505 3.4495 10.625 6 10.625C8.5505 10.625 10.625 8.5505 10.625 6C10.625 3.4495 8.5505 1.375 6 1.375ZM6.51001 7.75C6.51001 7.474 6.28651 7.25 6.01001 7.25H6.005C5.729 7.25 5.50745 7.474 5.50745 7.75C5.50745 8.026 5.73401 8.25 6.01001 8.25C6.28601 8.25 6.51001 8.026 6.51001 7.75ZM6.375 6.03552V3.75C6.375 3.543 6.207 3.375 6 3.375C5.793 3.375 5.625 3.543 5.625 3.75V6.03552C5.625 6.24252 5.793 6.41052 6 6.41052C6.207 6.41052 6.375 6.24252 6.375 6.03552Z" fill="#0EA5E9"/>
</svg>
