<svg width="19" height="18" viewBox="0 0 19 18" fill="none" xmlns="http://www.w3.org/2000/svg">
<g id="share-2">
<g id="Icon">
<path fill-rule="evenodd" clip-rule="evenodd" d="M12.5 3.75C12.5 2.92157 13.1716 2.25 14 2.25C14.8284 2.25 15.5 2.92157 15.5 3.75C15.5 4.57843 14.8284 5.25 14 5.25C13.4619 5.25 12.9899 4.96661 12.7252 4.54093C12.7189 4.52867 12.7123 4.51652 12.7053 4.50448C12.6982 4.49235 12.6908 4.48049 12.6832 4.46891C12.5664 4.25545 12.5 4.01048 12.5 3.75ZM11.1122 4.56576L11.6795 4.23474C12.0251 4.03304 12.4655 4.13892 12.6832 4.46891C12.6965 4.49334 12.7106 4.51735 12.7252 4.54093C12.9056 4.89286 12.7812 5.32852 12.4355 5.53027L11.8685 5.86114C11.516 5.50525 11.252 5.06155 11.1122 4.56576ZM7.13145 6.88886L11.1122 4.56576C11.0391 4.30639 11 4.03276 11 3.75C11 2.09315 12.3431 0.75 14 0.75C15.6569 0.75 17 2.09315 17 3.75C17 5.40685 15.6569 6.75 14 6.75C13.1664 6.75 12.4122 6.41001 11.8685 5.86114L7.88776 8.18424C7.74798 7.68845 7.48397 7.24475 7.13145 6.88886ZM6.27477 8.20907C6.09436 7.85714 6.21877 7.42148 6.56448 7.21973L7.13145 6.88886C6.58778 6.33999 5.83359 6 5 6C3.34315 6 2 7.34315 2 9C2 10.6569 3.34315 12 5 12C5.83375 12 6.58806 11.6599 7.13176 11.1108L11.1132 13.4309C11.0395 13.6913 11 13.966 11 14.25C11 15.9069 12.3431 17.25 14 17.25C15.6569 17.25 17 15.9069 17 14.25C17 12.5931 15.6569 11.25 14 11.25C13.1677 11.25 12.4145 11.589 11.871 12.1364L7.88787 9.81534C7.96092 9.5561 8 9.28261 8 9C8 8.71724 7.96088 8.44361 7.88776 8.18424L7.32052 8.51527C6.9749 8.71696 6.53453 8.61108 6.31682 8.28108C6.30345 8.25666 6.28943 8.23265 6.27477 8.20907ZM6.27478 9.79092C6.09426 10.143 6.21891 10.5789 6.56489 10.7805L7.13176 11.1108C7.48422 10.7549 7.74817 10.3112 7.88787 9.81534L7.32011 9.48449C6.9745 9.2831 6.53441 9.38909 6.31682 9.71892C6.43361 9.50545 6.5 9.26048 6.5 9C6.5 8.73952 6.43361 8.49455 6.31682 8.28108C6.30918 8.2695 6.30181 8.25765 6.29473 8.24552C6.28771 8.23348 6.28106 8.22133 6.27477 8.20907C6.0101 7.78339 5.53814 7.5 5 7.5C4.17157 7.5 3.5 8.17157 3.5 9C3.5 9.82843 4.17157 10.5 5 10.5C5.53815 10.5 6.01011 10.2166 6.27478 9.79092ZM6.27478 9.79092C6.28944 9.76735 6.30346 9.74334 6.31682 9.71892C6.30909 9.73063 6.30165 9.74262 6.29449 9.75489C6.28756 9.76679 6.28099 9.77881 6.27478 9.79092ZM12.7533 13.4157C12.9027 13.0718 12.7745 12.6629 12.4426 12.4695L11.871 12.1364C11.518 12.4919 11.2535 12.9353 11.1132 13.4309L11.6874 13.7655C12.0182 13.9583 12.4355 13.8694 12.6614 13.5723C12.5582 13.7759 12.5 14.0061 12.5 14.25C12.5 15.0784 13.1716 15.75 14 15.75C14.8284 15.75 15.5 15.0784 15.5 14.25C15.5 13.4216 14.8284 12.75 14 12.75C13.4804 12.75 13.0224 13.0142 12.7533 13.4157ZM12.7533 13.4157C12.7416 13.4426 12.7282 13.4691 12.713 13.4951C12.6972 13.5222 12.68 13.548 12.6614 13.5723C12.6889 13.5181 12.7196 13.4658 12.7533 13.4157Z" fill="#F2F2F2"/>
<path d="M6.31682 8.28108C6.53453 8.61108 6.9749 8.71696 7.32052 8.51527L7.88776 8.18424C7.74798 7.68845 7.48397 7.24475 7.13145 6.88886L6.56448 7.21973C6.21877 7.42148 6.09436 7.85714 6.27477 8.20907C6.28943 8.23265 6.30345 8.25666 6.31682 8.28108Z" fill="#F2F2F2"/>
<path d="M6.27478 9.79092C6.09426 10.143 6.21891 10.5789 6.56489 10.7805L7.13176 11.1108C7.48422 10.7549 7.74817 10.3112 7.88787 9.81534L7.32011 9.48449C6.9745 9.2831 6.53441 9.38909 6.31682 9.71892C6.30346 9.74334 6.28944 9.76735 6.27478 9.79092Z" fill="#F2F2F2"/>
<path d="M12.7533 13.4157C12.9027 13.0718 12.7745 12.6629 12.4426 12.4695L11.871 12.1364C11.518 12.4919 11.2535 12.9353 11.1132 13.4309L11.6874 13.7655C12.0182 13.9583 12.4355 13.8694 12.6614 13.5723C12.6889 13.5181 12.7196 13.4658 12.7533 13.4157Z" fill="#F2F2F2"/>
<path d="M11.6795 4.23474L11.1122 4.56576C11.252 5.06155 11.516 5.50525 11.8685 5.86114L12.4355 5.53027C12.7812 5.32852 12.9056 4.89286 12.7252 4.54093C12.7106 4.51735 12.6965 4.49334 12.6832 4.46891C12.4655 4.13892 12.0251 4.03304 11.6795 4.23474Z" fill="#F2F2F2"/>
</g>
</g>
</svg>
