<svg width="24" height="24" viewBox="0 0 24 24" fill="none" xmlns="http://www.w3.org/2000/svg">
<path d="M5.04235 15.1661C5.04235 16.5538 3.9088 17.6873 2.52117 17.6873C1.13355 17.6873 0 16.5538 0 15.1661C0 13.7785 1.13355 12.645 2.52117 12.645H5.04235V15.1661Z" fill="#E01E5A"/>
<path d="M6.3125 15.1661C6.3125 13.7785 7.44605 12.645 8.83367 12.645C10.2213 12.645 11.3548 13.7785 11.3548 15.1661V21.4788C11.3548 22.8665 10.2213 24 8.83367 24C7.44605 24 6.3125 22.8665 6.3125 21.4788V15.1661Z" fill="#E01E5A"/>
<path d="M8.83367 5.04235C7.44605 5.04235 6.3125 3.9088 6.3125 2.52117C6.3125 1.13355 7.44605 0 8.83367 0C10.2213 0 11.3548 1.13355 11.3548 2.52117V5.04235H8.83367Z" fill="#36C5F0"/>
<path d="M8.83388 6.31268C10.2215 6.31268 11.355 7.44623 11.355 8.83386C11.355 10.2215 10.2215 11.355 8.83388 11.355H2.52117C1.13355 11.355 0 10.2215 0 8.83386C0 7.44623 1.13355 6.31268 2.52117 6.31268H8.83388Z" fill="#36C5F0"/>
<path d="M18.9575 8.83386C18.9575 7.44623 20.0911 6.31268 21.4787 6.31268C22.8663 6.31268 23.9999 7.44623 23.9999 8.83386C23.9999 10.2215 22.8663 11.355 21.4787 11.355H18.9575V8.83386Z" fill="#2EB67D"/>
<path d="M17.6874 8.83388C17.6874 10.2215 16.5538 11.355 15.1662 11.355C13.7786 11.355 12.645 10.2215 12.645 8.83388V2.52117C12.645 1.13355 13.7786 0 15.1662 0C16.5538 0 17.6874 1.13355 17.6874 2.52117V8.83388Z" fill="#2EB67D"/>
<path d="M15.1662 18.9576C16.5538 18.9576 17.6874 20.0912 17.6874 21.4788C17.6874 22.8664 16.5538 24 15.1662 24C13.7786 24 12.645 22.8664 12.645 21.4788V18.9576H15.1662Z" fill="#ECB22E"/>
<path d="M15.1662 17.6873C13.7786 17.6873 12.645 16.5538 12.645 15.1661C12.645 13.7785 13.7786 12.645 15.1662 12.645H21.4789C22.8665 12.645 24.0001 13.7785 24.0001 15.1661C24.0001 16.5538 22.8665 17.6873 21.4789 17.6873H15.1662Z" fill="#ECB22E"/>
</svg>
